<?xml version="1.0" encoding="utf-8"?>
<!-- Generator: Adobe Illustrator 22.0.1, SVG Export Plug-In . SVG Version: 6.00 Build 0)  -->
<svg version="1.1" id="Layer_1" xmlns="http://www.w3.org/2000/svg" xmlns:xlink="http://www.w3.org/1999/xlink" x="0px" y="0px"
	 viewBox="0 0 1320.9 446" style="enable-background:new 0 0 1320.9 446;" xml:space="preserve">
<style type="text/css">
	.st0{fill:#EA5454;}
	.st1{fill:#E04444;}
	.st2{fill:#EA4949;}
	.st3{fill:#EF6565;}
	.st4{fill:#D82727;}
	.st5{fill:#A3D5E0;}
	.st6{fill:#019FC9;}
</style>
<path class="st0" d="M392.4,94.3L136.5,195.9l109.9,204.9l0.1,0c6.9,14.2,57.5,7.8,113.8-14.5c56.4-22.4,97.5-52.4,92.8-67.5l0,0
	L392.4,94.3z"/>
<path class="st1" d="M151.5,196c28,0.1,62.6-2.4,122.8-26.3c63-25,87.2-45.8,107.4-65.1c-24,18-63.7,39.2-110.3,57.7
	S181.3,192.7,151.5,196z"/>
<path class="st2" d="M402.3,61.4l-294.7,117l4.1,10.2l0,0c0,0.1,0.1,0.2,0.1,0.3c6.8,17.1,78.2,4.8,159.6-27.5s141.8-72.3,135-89.4
	c0-0.1-0.1-0.2-0.1-0.3l0,0L402.3,61.4L402.3,61.4z"/>
<path class="st3" d="M401.9,62.1c-7-17.6-78.5-5.6-159.8,26.7S100.5,161.4,107.5,179c7,17.6,78.5,5.6,159.8-26.7
	S408.9,79.6,401.9,62.1z"/>
<path class="st4" d="M378.8,71.3c-5.9-14.8-66.2-4.7-134.7,22.5s-119.3,61.2-113.5,76c2,5.1,10.5,7.2,23.6,6.8
	c24.8-0.9,193.3-67.8,212-84.2C376.1,83.7,380.8,76.4,378.8,71.3z"/>
<g>
	<path class="st5" d="M366.3,92.4c-24.8,0.9-66.2,11.4-111,29.2s-82.2,38.5-100.9,54.9c24.8-0.9,66.2-11.4,111-29.2
		C310.2,129.5,347.5,108.7,366.3,92.4z"/>
	<path class="st5" d="M345.3,107.7c8.3-5.3,15.4-10.5,20.9-15.3c-24.8,0.9-66.2,11.4-111,29.2s-82.2,38.5-100.9,54.9
		c7.2-0.3,15.9-1.4,25.7-3.2c20.2-13,48.2-27,80-39.6C291.7,121.1,321.7,112.1,345.3,107.7z"/>
</g>
<path class="st5" d="M209,244c0,0-62.5,26.1-107,21c-26-3,54-33,54-33l-11.1-20.5c0,0-92.6,39.8-101.9,57.5c-10,19,22,27,94,29
	s139-9,139-9l-45-38L209,244z"/>
<path class="st5" d="M408,152c0,0,48,0,67,22s4,95-91,140s-211,60-211,60s206.3-60.4,249-100c27-25,56-71,35-84s-42-13-42-13
	L408,152z"/>
<path class="st5" d="M708,341"/>
<path class="st6" d="M275.8,277.1l85.3-26.5l47.1,17.6c0,0,14.7,5.9,20.6-5.9c5.9-11.8,14.7-35.3,14.7-35.3l73.5-29.4
	c0,0,38.2-14.7,32.4-23.5s-35.3-5.9-35.3-5.9s-11.8-11.8-29.4-2.9S417,197.6,417,197.6l-100-26.5c0,0-17.6-5.9-23.5-2.9
	C287.6,171.2,270,180,270,180l55.9,47.1L270,253.5c0,0-35.3-20.6-50-14.7c-14.7,5.9-11.8,5.9-11.8,5.9l29.4,26.5l-14.7,8.8h17.6
	l11.8,5.9c0,0,20.6,5.9,23.5,2.9C275.8,288.8,281.7,285.9,275.8,277.1z"/>
<path class="st5" d="M708,343"/>
<g>
	<path class="st6" d="M606.3,126.7h-28.5v-15.4c26,0,47.9,0,74,0v15.4h-28.5v74.6h-17V126.7z"/>
	<path class="st6" d="M662.1,137.9l1.2,7.3c4.9-7.8,11.4-9,17.9-9c6.6,0,12.9,2.6,16.3,6l-7.1,13.6c-3.2-2.7-6.2-4.1-11.3-4.1
		c-8.2,0-15.8,4.4-15.8,16.1v33.4h-15.7v-63.4H662.1z"/>
	<path class="st6" d="M753.6,137.9h15v63.4h-14.8l-0.8-9.3c-3.6,7.5-13.5,11.1-20.6,11.2c-18.8,0.1-32.6-11.4-32.6-33.7
		c0-21.9,14.5-33.3,33-33.2c8.5,0,16.6,4,20.2,10.3L753.6,137.9z M715.6,169.5c0,12.1,8.4,19.3,18.8,19.3c24.7,0,24.7-38.4,0-38.4
		C723.9,150.4,715.6,157.4,715.6,169.5z"/>
	<path class="st6" d="M843.6,137.8l-27,63.8h-17l-27.1-63.8h17.1l8.7,21l9.8,26.7l9.6-26.5l8.7-21.2H843.6z"/>
	<path class="st6" d="M864.5,175.2c1,7.8,7.8,13.5,18.9,13.5c5.8,0,13.4-2.2,17-5.9l10,9.9c-6.7,6.9-17.6,10.3-27.3,10.3
		c-21.9,0-34.8-13.5-34.8-33.8c0-19.3,13.1-33.2,33.7-33.2c21.2,0,34.4,13.1,32,39.2H864.5z M899,162.2c-1-8.2-7.5-12.3-16.5-12.3
		c-8.5,0-15.4,4.1-17.7,12.3H899z"/>
	<path class="st6" d="M941.7,111.4v89.8h-15.6v-89.8H941.7z"/>
	<path class="st6" d="M656.2,267.2c0,6.9-3.3,13.6-11.7,17.4c10.5,3.2,14.4,14.4,14.4,20.1c0,20.1-15,26.5-33.7,26.5
		c-14.3,0-28.4,0-42.7,0v-90c14.1,0,28.4,0,42.7,0C642.9,241.1,656.2,249.1,656.2,267.2z M599.2,277.2h26c10.7,0,14.1-4.5,14.1-9.6
		c0-4.1-3.3-11.1-14.1-11.1h-26V277.2z M599.2,315.3h26c6.9,0,16.8-2.3,16.8-10.8c0-8.1-9.9-12.3-16.8-12.3h-26V315.3z"/>
	<path class="st6" d="M685.7,267.7v33.2c0,9.6,5.3,17,15.3,17c9.6,0,16.2-8.1,16.2-17.7v-32.4h15.6v63.5h-14l-1-8.6
		c-6.6,6.4-12.6,9.5-21.5,9.5c-15.2,0-26.2-11.4-26.2-31.1v-33.3H685.7z"/>
	<path class="st6" d="M801,323c-7.3,7.2-15,10-24.4,10c-18.4,0-33.7-11.1-33.7-33.5c0-22.5,15.3-33.5,33.7-33.5
		c9,0,15.9,2.6,22.9,9.4l-9.9,10.4c-3.7-3.3-8.4-5-12.7-5c-10.5,0-18.3,7.7-18.3,18.8c0,12.1,8.2,18.5,18,18.5c5,0,10-1.4,13.9-5.3
		L801,323z"/>
	<path class="st6" d="M823.3,241.3v51.9l21.3-25.5h18.8v0.9l-25.8,28.9l29.4,32.4v1.2h-18.9l-24.8-28.7v28.7h-15.7v-89.8H823.3z"/>
	<path class="st6" d="M887.6,305c1,7.8,7.8,13.5,18.9,13.5c5.8,0,13.4-2.2,17-5.9l10,9.9c-6.7,6.9-17.6,10.3-27.3,10.3
		c-21.9,0-34.8-13.5-34.8-33.8c0-19.3,13.1-33.2,33.7-33.2c21.2,0,34.4,13.1,32,39.2H887.6z M922,292c-1-8.2-7.5-12.3-16.5-12.3
		c-8.5,0-15.4,4.1-17.7,12.3H922z"/>
	<path class="st6" d="M968.5,249.9v18H986v13.5h-17.6v27.4c0,6,3.3,9,8.2,9c2.4,0,5.3-0.8,7.6-1.9l4.4,13.4c-4.5,1.8-8.2,2.6-13,2.7
		c-13.8,0.5-22.8-7.3-22.8-23.1v-27.4H941v-13.5h11.8v-16.3L968.5,249.9z"/>
	<path class="st6" d="M1041.8,241.1v74.3h46.3v15.7h-63.2v-90H1041.8z"/>
	<path class="st6" d="M1116,249.9c0,12.2-18.5,12.2-18.5,0S1116,237.7,1116,249.9z M1098.9,267.5v63.6h15.7v-63.6H1098.9z"/>
	<path class="st6" d="M1170.1,284.6c-4.5-4.2-9.6-5.7-15.7-5.7c-7.5,0-11.6,2.3-11.6,6.3c0,4.1,3.7,6.4,11.8,6.9
		c12,0.8,27.1,3.5,27.1,20.3c0,11.2-9.1,20.8-27.3,20.8c-10,0-20.1-1.7-29.3-11.3l7.7-11.2c4.5,5,14.8,8.7,21.9,8.9
		c5.9,0.1,11.4-3,11.4-7.6c0-4.4-3.6-6.2-12.6-6.7c-12-0.9-26.2-5.3-26.2-19.7c0-14.7,15.2-19.8,26.7-19.8c9.9,0,17.4,1.9,24.7,8.4
		L1170.1,284.6z"/>
	<path class="st6" d="M1213.9,249.9v18h17.5v13.5h-17.6v27.4c0,6,3.3,9,8.2,9c2.4,0,5.3-0.8,7.6-1.9l4.4,13.4
		c-4.5,1.8-8.2,2.6-13,2.7c-13.8,0.5-22.8-7.3-22.8-23.1v-27.4h-11.8v-13.5h11.8v-16.3L1213.9,249.9z"/>
</g>
</svg>
