<?xml version="1.0" encoding="utf-8"?>
<!-- Generator: Adobe Illustrator 22.0.1, SVG Export Plug-In . SVG Version: 6.00 Build 0)  -->
<svg version="1.1" id="Layer_1" xmlns="http://www.w3.org/2000/svg" xmlns:xlink="http://www.w3.org/1999/xlink" x="0px" y="0px"
	 viewBox="0 0 1320.9 420" style="enable-background:new 0 0 1320.9 420;" xml:space="preserve">
<style type="text/css">
	.st0{fill:#EA5454;}
	.st1{fill:#E04444;}
	.st2{fill:#EA4949;}
	.st3{fill:#EF6565;}
	.st4{fill:#D82727;}
	.st5{fill:#A3D5E0;}
	.st6{fill:url(#SVGID_1_);}
	.st7{fill:url(#SVGID_2_);}
	.st8{fill:url(#SVGID_3_);}
	.st9{fill:url(#SVGID_4_);}
	.st10{fill:url(#SVGID_5_);}
	.st11{fill:url(#SVGID_6_);}
	.st12{fill:url(#SVGID_7_);}
	.st13{fill:url(#SVGID_8_);}
	.st14{fill:url(#SVGID_9_);}
	.st15{fill:url(#SVGID_10_);}
	.st16{fill:url(#SVGID_11_);}
	.st17{fill:url(#SVGID_12_);}
	.st18{fill:url(#SVGID_13_);}
	.st19{fill:url(#SVGID_14_);}
	.st20{fill:url(#SVGID_15_);}
	.st21{fill:url(#SVGID_16_);}
	.st22{fill:url(#SVGID_17_);}
	.st23{fill:url(#SVGID_18_);}
	.st24{fill:url(#SVGID_19_);}
	.st25{fill:url(#SVGID_20_);}
	.st26{fill:url(#SVGID_21_);}
	.st27{fill:url(#SVGID_22_);}
</style>
<path class="st0" d="M392.4,94.3L136.5,195.9l109.9,204.9l0.1,0c6.9,14.2,57.5,7.8,113.8-14.5c56.4-22.4,97.5-52.4,92.8-67.5l0,0
	L392.4,94.3z"/>
<path class="st1" d="M151.5,196c28,0.1,62.6-2.4,122.8-26.3c63-25,87.2-45.8,107.4-65.1c-24,18-63.7,39.2-110.3,57.7
	S181.3,192.7,151.5,196z"/>
<path class="st2" d="M402.3,61.4l-294.7,117l4.1,10.2l0,0c0,0.1,0.1,0.2,0.1,0.3c6.8,17.1,78.2,4.8,159.6-27.5s141.8-72.3,135-89.4
	c0-0.1-0.1-0.2-0.1-0.3l0,0L402.3,61.4L402.3,61.4z"/>
<path class="st3" d="M401.9,62.1c-7-17.6-78.5-5.6-159.8,26.7S100.5,161.4,107.5,179c7,17.6,78.5,5.6,159.8-26.7
	S408.9,79.6,401.9,62.1z"/>
<path class="st4" d="M378.8,71.3c-5.9-14.8-66.2-4.7-134.7,22.5s-119.3,61.2-113.5,76c2,5.1,10.5,7.2,23.6,6.8
	c24.8-0.9,193.3-67.8,212-84.2C376.1,83.7,380.8,76.4,378.8,71.3z"/>
<g>
	<path class="st5" d="M366.3,92.4c-24.8,0.9-66.2,11.4-111,29.2s-82.2,38.5-100.9,54.9c24.8-0.9,66.2-11.4,111-29.2
		C310.2,129.5,347.5,108.7,366.3,92.4z"/>
	<path class="st5" d="M345.3,107.7c8.3-5.3,15.4-10.5,20.9-15.3c-24.8,0.9-66.2,11.4-111,29.2s-82.2,38.5-100.9,54.9
		c7.2-0.3,15.9-1.4,25.7-3.2c20.2-13,48.2-27,80-39.6C291.7,121.1,321.7,112.1,345.3,107.7z"/>
</g>
<path class="st5" d="M209,244c0,0-62.5,26.1-107,21c-26-3,54-33,54-33l-11.1-20.5c0,0-92.6,39.8-101.9,57.5c-10,19,22,27,94,29
	s139-9,139-9l-45-38L209,244z"/>
<path class="st5" d="M408,152c0,0,48,0,67,22c19.8,23,5.6,104.2-80,140c-110,46-222,60-222,60s208-52,253-92c27.5-24.4,52-79,31-92
	s-42-13-42-13L408,152z"/>
<linearGradient id="SVGID_1_" gradientUnits="userSpaceOnUse" x1="707" y1="341" x2="707" y2="341">
	<stop  offset="0" style="stop-color:#A3D5E0"/>
	<stop  offset="3.768843e-02" style="stop-color:#82CADB"/>
	<stop  offset="8.602826e-02" style="stop-color:#60BFD6"/>
	<stop  offset="0.1395" style="stop-color:#42B5D2"/>
	<stop  offset="0.1982" style="stop-color:#2AADCF"/>
	<stop  offset="0.2646" style="stop-color:#18A7CC"/>
	<stop  offset="0.3428" style="stop-color:#0BA2CA"/>
	<stop  offset="0.4445" style="stop-color:#03A0C9"/>
	<stop  offset="0.655" style="stop-color:#019FC9"/>
</linearGradient>
<path class="st6" d="M707,341"/>
<linearGradient id="SVGID_2_" gradientUnits="userSpaceOnUse" x1="229.601" y1="291.6283" x2="520.3336" y2="123.7738">
	<stop  offset="0" style="stop-color:#FFFFFF"/>
	<stop  offset="0" style="stop-color:#AEFFFD"/>
	<stop  offset="0.1145" style="stop-color:#A7FBFB"/>
	<stop  offset="0.278" style="stop-color:#94F1F5"/>
	<stop  offset="0.4708" style="stop-color:#76E0EC"/>
	<stop  offset="0.6861" style="stop-color:#4BC8DF"/>
	<stop  offset="0.9173" style="stop-color:#14AACF"/>
	<stop  offset="0.9928" style="stop-color:#019FC9"/>
</linearGradient>
<path class="st7" d="M275.8,277.1l85.3-26.5l47.1,17.6c0,0,14.7,5.9,20.6-5.9c5.9-11.8,14.7-35.3,14.7-35.3l73.5-29.4
	c0,0,38.2-14.7,32.4-23.5s-35.3-5.9-35.3-5.9s-11.8-11.8-29.4-2.9S417,197.6,417,197.6l-100-26.5c0,0-17.6-5.9-23.5-2.9
	C287.6,171.2,270,180,270,180l55.9,47.1L270,253.5c0,0-35.3-20.6-50-14.7c-14.7,5.9-11.8,5.9-11.8,5.9l29.4,26.5l-14.7,8.8h17.6
	l11.8,5.9c0,0,20.6,5.9,23.5,2.9C275.8,288.8,281.7,285.9,275.8,277.1z"/>
<linearGradient id="SVGID_3_" gradientUnits="userSpaceOnUse" x1="707" y1="343" x2="707" y2="343">
	<stop  offset="0" style="stop-color:#A3D5E0"/>
	<stop  offset="3.768843e-02" style="stop-color:#82CADB"/>
	<stop  offset="8.602826e-02" style="stop-color:#60BFD6"/>
	<stop  offset="0.1395" style="stop-color:#42B5D2"/>
	<stop  offset="0.1982" style="stop-color:#2AADCF"/>
	<stop  offset="0.2646" style="stop-color:#18A7CC"/>
	<stop  offset="0.3428" style="stop-color:#0BA2CA"/>
	<stop  offset="0.4445" style="stop-color:#03A0C9"/>
	<stop  offset="0.655" style="stop-color:#019FC9"/>
</linearGradient>
<path class="st8" d="M707,343"/>
<g>
	<linearGradient id="SVGID_4_" gradientUnits="userSpaceOnUse" x1="613.7979" y1="201.2549" x2="613.7979" y2="111.2773">
		<stop  offset="0" style="stop-color:#A3D5E0"/>
		<stop  offset="3.768843e-02" style="stop-color:#82CADB"/>
		<stop  offset="8.602826e-02" style="stop-color:#60BFD6"/>
		<stop  offset="0.1395" style="stop-color:#42B5D2"/>
		<stop  offset="0.1982" style="stop-color:#2AADCF"/>
		<stop  offset="0.2646" style="stop-color:#18A7CC"/>
		<stop  offset="0.3428" style="stop-color:#0BA2CA"/>
		<stop  offset="0.4445" style="stop-color:#03A0C9"/>
		<stop  offset="0.655" style="stop-color:#019FC9"/>
	</linearGradient>
	<path class="st9" d="M605.3,126.7h-28.5v-15.4c26,0,47.9,0,74,0v15.4h-28.5v74.6h-17V126.7z"/>
	<linearGradient id="SVGID_5_" gradientUnits="userSpaceOnUse" x1="690.6616" y1="201.2549" x2="690.6616" y2="111.2773">
		<stop  offset="0" style="stop-color:#A3D5E0"/>
		<stop  offset="3.768843e-02" style="stop-color:#82CADB"/>
		<stop  offset="8.602826e-02" style="stop-color:#60BFD6"/>
		<stop  offset="0.1395" style="stop-color:#42B5D2"/>
		<stop  offset="0.1982" style="stop-color:#2AADCF"/>
		<stop  offset="0.2646" style="stop-color:#18A7CC"/>
		<stop  offset="0.3428" style="stop-color:#0BA2CA"/>
		<stop  offset="0.4445" style="stop-color:#03A0C9"/>
		<stop  offset="0.655" style="stop-color:#019FC9"/>
	</linearGradient>
	<path class="st10" d="M675.6,111.3v35.2c5.7-7.3,12.6-9.5,19.8-9.5c18,0,26,12.2,26,30.8v33.4h-15.7V168c0-11.6-6-16.5-14.4-16.5
		c-9.3,0-15.7,7.8-15.7,17.4v32.4h-15.7v-90H675.6z"/>
	<linearGradient id="SVGID_6_" gradientUnits="userSpaceOnUse" x1="764.7787" y1="202.9258" x2="764.7787" y2="135.957">
		<stop  offset="0" style="stop-color:#A3D5E0"/>
		<stop  offset="3.768843e-02" style="stop-color:#82CADB"/>
		<stop  offset="8.602826e-02" style="stop-color:#60BFD6"/>
		<stop  offset="0.1395" style="stop-color:#42B5D2"/>
		<stop  offset="0.1982" style="stop-color:#2AADCF"/>
		<stop  offset="0.2646" style="stop-color:#18A7CC"/>
		<stop  offset="0.3428" style="stop-color:#0BA2CA"/>
		<stop  offset="0.4445" style="stop-color:#03A0C9"/>
		<stop  offset="0.655" style="stop-color:#019FC9"/>
	</linearGradient>
	<path class="st11" d="M748,175.2c1,7.8,7.8,13.5,18.9,13.5c5.8,0,13.4-2.2,17-5.9l10,9.9c-6.7,6.9-17.6,10.3-27.3,10.3
		c-21.9,0-34.8-13.5-34.8-33.8c0-19.3,13.1-33.2,33.7-33.2c21.2,0,34.4,13.1,32,39.2H748z M782.4,162.2c-1-8.2-7.5-12.3-16.5-12.3
		c-8.5,0-15.4,4.1-17.7,12.3H782.4z"/>
	<linearGradient id="SVGID_7_" gradientUnits="userSpaceOnUse" x1="868.4258" y1="201.2549" x2="868.4258" y2="111.2773">
		<stop  offset="0" style="stop-color:#A3D5E0"/>
		<stop  offset="3.768843e-02" style="stop-color:#82CADB"/>
		<stop  offset="8.602826e-02" style="stop-color:#60BFD6"/>
		<stop  offset="0.1395" style="stop-color:#42B5D2"/>
		<stop  offset="0.1982" style="stop-color:#2AADCF"/>
		<stop  offset="0.2646" style="stop-color:#18A7CC"/>
		<stop  offset="0.3428" style="stop-color:#0BA2CA"/>
		<stop  offset="0.4445" style="stop-color:#03A0C9"/>
		<stop  offset="0.655" style="stop-color:#019FC9"/>
	</linearGradient>
	<path class="st12" d="M859.9,126.7h-28.5v-15.4c26,0,47.9,0,74,0v15.4h-28.5v74.6h-17V126.7z"/>
	<linearGradient id="SVGID_8_" gradientUnits="userSpaceOnUse" x1="926.1392" y1="201.2549" x2="926.1392" y2="136.2139">
		<stop  offset="0" style="stop-color:#A3D5E0"/>
		<stop  offset="3.768843e-02" style="stop-color:#82CADB"/>
		<stop  offset="8.602826e-02" style="stop-color:#60BFD6"/>
		<stop  offset="0.1395" style="stop-color:#42B5D2"/>
		<stop  offset="0.1982" style="stop-color:#2AADCF"/>
		<stop  offset="0.2646" style="stop-color:#18A7CC"/>
		<stop  offset="0.3428" style="stop-color:#0BA2CA"/>
		<stop  offset="0.4445" style="stop-color:#03A0C9"/>
		<stop  offset="0.655" style="stop-color:#019FC9"/>
	</linearGradient>
	<path class="st13" d="M915.7,137.9l1.2,7.3c4.9-7.8,11.4-9,17.9-9c6.6,0,12.9,2.6,16.3,6l-7.1,13.6c-3.2-2.7-6.2-4.1-11.3-4.1
		c-8.2,0-15.8,4.4-15.8,16.1v33.4h-15.7v-63.4H915.7z"/>
	<linearGradient id="SVGID_9_" gradientUnits="userSpaceOnUse" x1="987.9004" y1="203.1837" x2="987.9004" y2="136.3407">
		<stop  offset="0" style="stop-color:#A3D5E0"/>
		<stop  offset="3.768843e-02" style="stop-color:#82CADB"/>
		<stop  offset="8.602826e-02" style="stop-color:#60BFD6"/>
		<stop  offset="0.1395" style="stop-color:#42B5D2"/>
		<stop  offset="0.1982" style="stop-color:#2AADCF"/>
		<stop  offset="0.2646" style="stop-color:#18A7CC"/>
		<stop  offset="0.3428" style="stop-color:#0BA2CA"/>
		<stop  offset="0.4445" style="stop-color:#03A0C9"/>
		<stop  offset="0.655" style="stop-color:#019FC9"/>
	</linearGradient>
	<path class="st14" d="M1007.2,137.9h15v63.4h-14.8l-0.8-9.3c-3.6,7.5-13.5,11.1-20.6,11.2c-18.8,0.1-32.6-11.4-32.6-33.7
		c0-21.9,14.5-33.3,33-33.2c8.5,0,16.6,4,20.2,10.3L1007.2,137.9z M969.2,169.5c0,12.1,8.4,19.3,18.8,19.3c24.7,0,24.7-38.4,0-38.4
		C977.6,150.4,969.2,157.4,969.2,169.5z"/>
	<linearGradient id="SVGID_10_" gradientUnits="userSpaceOnUse" x1="1061.6797" y1="201.5117" x2="1061.6797" y2="137.7559">
		<stop  offset="0" style="stop-color:#A3D5E0"/>
		<stop  offset="3.768843e-02" style="stop-color:#82CADB"/>
		<stop  offset="8.602826e-02" style="stop-color:#60BFD6"/>
		<stop  offset="0.1395" style="stop-color:#42B5D2"/>
		<stop  offset="0.1982" style="stop-color:#2AADCF"/>
		<stop  offset="0.2646" style="stop-color:#18A7CC"/>
		<stop  offset="0.3428" style="stop-color:#0BA2CA"/>
		<stop  offset="0.4445" style="stop-color:#03A0C9"/>
		<stop  offset="0.655" style="stop-color:#019FC9"/>
	</linearGradient>
	<path class="st15" d="M1097.2,137.8l-27,63.8h-17l-27.1-63.8h17.1l8.7,21l9.8,26.7l9.6-26.5l8.7-21.2H1097.2z"/>
	<linearGradient id="SVGID_11_" gradientUnits="userSpaceOnUse" x1="1134.9614" y1="202.9258" x2="1134.9614" y2="135.957">
		<stop  offset="0" style="stop-color:#A3D5E0"/>
		<stop  offset="3.768843e-02" style="stop-color:#82CADB"/>
		<stop  offset="8.602826e-02" style="stop-color:#60BFD6"/>
		<stop  offset="0.1395" style="stop-color:#42B5D2"/>
		<stop  offset="0.1982" style="stop-color:#2AADCF"/>
		<stop  offset="0.2646" style="stop-color:#18A7CC"/>
		<stop  offset="0.3428" style="stop-color:#0BA2CA"/>
		<stop  offset="0.4445" style="stop-color:#03A0C9"/>
		<stop  offset="0.655" style="stop-color:#019FC9"/>
	</linearGradient>
	<path class="st16" d="M1118.2,175.2c1,7.8,7.8,13.5,18.9,13.5c5.8,0,13.4-2.2,17-5.9l10,9.9c-6.7,6.9-17.6,10.3-27.3,10.3
		c-21.9,0-34.8-13.5-34.8-33.8c0-19.3,13.1-33.2,33.7-33.2c21.2,0,34.4,13.1,32,39.2H1118.2z M1152.6,162.2
		c-1-8.2-7.5-12.3-16.5-12.3c-8.5,0-15.4,4.1-17.7,12.3H1152.6z"/>
	<linearGradient id="SVGID_12_" gradientUnits="userSpaceOnUse" x1="1187.5151" y1="201.2549" x2="1187.5151" y2="111.4053">
		<stop  offset="0" style="stop-color:#A3D5E0"/>
		<stop  offset="3.768843e-02" style="stop-color:#82CADB"/>
		<stop  offset="8.602826e-02" style="stop-color:#60BFD6"/>
		<stop  offset="0.1395" style="stop-color:#42B5D2"/>
		<stop  offset="0.1982" style="stop-color:#2AADCF"/>
		<stop  offset="0.2646" style="stop-color:#18A7CC"/>
		<stop  offset="0.3428" style="stop-color:#0BA2CA"/>
		<stop  offset="0.4445" style="stop-color:#03A0C9"/>
		<stop  offset="0.655" style="stop-color:#019FC9"/>
	</linearGradient>
	<path class="st17" d="M1195.3,111.4v89.8h-15.6v-89.8H1195.3z"/>
	<linearGradient id="SVGID_13_" gradientUnits="userSpaceOnUse" x1="619.7104" y1="331.1045" x2="619.7104" y2="241.127">
		<stop  offset="0" style="stop-color:#A3D5E0"/>
		<stop  offset="3.768843e-02" style="stop-color:#82CADB"/>
		<stop  offset="8.602826e-02" style="stop-color:#60BFD6"/>
		<stop  offset="0.1395" style="stop-color:#42B5D2"/>
		<stop  offset="0.1982" style="stop-color:#2AADCF"/>
		<stop  offset="0.2646" style="stop-color:#18A7CC"/>
		<stop  offset="0.3428" style="stop-color:#0BA2CA"/>
		<stop  offset="0.4445" style="stop-color:#03A0C9"/>
		<stop  offset="0.655" style="stop-color:#019FC9"/>
	</linearGradient>
	<path class="st18" d="M655.2,267.2c0,6.9-3.3,13.6-11.7,17.4c10.5,3.2,14.4,14.4,14.4,20.1c0,20.1-15,26.5-33.7,26.5
		c-14.3,0-28.4,0-42.7,0v-90c14.1,0,28.4,0,42.7,0C641.9,241.1,655.2,249.1,655.2,267.2z M598.2,277.2h26c10.7,0,14.1-4.5,14.1-9.6
		c0-4.1-3.3-11.1-14.1-11.1h-26V277.2z M598.2,315.3h26c6.9,0,16.8-2.3,16.8-10.8c0-8.1-9.9-12.3-16.8-12.3h-26V315.3z"/>
	<linearGradient id="SVGID_14_" gradientUnits="userSpaceOnUse" x1="700.4312" y1="332.1328" x2="700.4312" y2="267.7344">
		<stop  offset="0" style="stop-color:#A3D5E0"/>
		<stop  offset="3.768843e-02" style="stop-color:#82CADB"/>
		<stop  offset="8.602826e-02" style="stop-color:#60BFD6"/>
		<stop  offset="0.1395" style="stop-color:#42B5D2"/>
		<stop  offset="0.1982" style="stop-color:#2AADCF"/>
		<stop  offset="0.2646" style="stop-color:#18A7CC"/>
		<stop  offset="0.3428" style="stop-color:#0BA2CA"/>
		<stop  offset="0.4445" style="stop-color:#03A0C9"/>
		<stop  offset="0.655" style="stop-color:#019FC9"/>
	</linearGradient>
	<path class="st19" d="M684.7,267.7v33.2c0,9.6,5.3,17,15.3,17c9.6,0,16.2-8.1,16.2-17.7v-32.4h15.6v63.5h-14l-1-8.6
		c-6.6,6.4-12.6,9.5-21.5,9.5c-15.2,0-26.2-11.4-26.2-31.1v-33.3H684.7z"/>
	<linearGradient id="SVGID_15_" gradientUnits="userSpaceOnUse" x1="770.998" y1="333.0322" x2="770.998" y2="265.9346">
		<stop  offset="0" style="stop-color:#A3D5E0"/>
		<stop  offset="3.768843e-02" style="stop-color:#82CADB"/>
		<stop  offset="8.602826e-02" style="stop-color:#60BFD6"/>
		<stop  offset="0.1395" style="stop-color:#42B5D2"/>
		<stop  offset="0.1982" style="stop-color:#2AADCF"/>
		<stop  offset="0.2646" style="stop-color:#18A7CC"/>
		<stop  offset="0.3428" style="stop-color:#0BA2CA"/>
		<stop  offset="0.4445" style="stop-color:#03A0C9"/>
		<stop  offset="0.655" style="stop-color:#019FC9"/>
	</linearGradient>
	<path class="st20" d="M800,323c-7.3,7.2-15,10-24.4,10c-18.4,0-33.7-11.1-33.7-33.5c0-22.5,15.3-33.5,33.7-33.5
		c9,0,15.9,2.6,22.9,9.4l-9.9,10.4c-3.7-3.3-8.4-5-12.7-5c-10.5,0-18.3,7.7-18.3,18.8c0,12.1,8.2,18.5,18,18.5c5,0,10-1.4,13.9-5.3
		L800,323z"/>
	<linearGradient id="SVGID_16_" gradientUnits="userSpaceOnUse" x1="836.2935" y1="331.1045" x2="836.2935" y2="241.2549">
		<stop  offset="0" style="stop-color:#A3D5E0"/>
		<stop  offset="3.768843e-02" style="stop-color:#82CADB"/>
		<stop  offset="8.602826e-02" style="stop-color:#60BFD6"/>
		<stop  offset="0.1395" style="stop-color:#42B5D2"/>
		<stop  offset="0.1982" style="stop-color:#2AADCF"/>
		<stop  offset="0.2646" style="stop-color:#18A7CC"/>
		<stop  offset="0.3428" style="stop-color:#0BA2CA"/>
		<stop  offset="0.4445" style="stop-color:#03A0C9"/>
		<stop  offset="0.655" style="stop-color:#019FC9"/>
	</linearGradient>
	<path class="st21" d="M822.3,241.3v51.9l21.3-25.5h18.8v0.9l-25.8,28.9l29.4,32.4v1.2h-18.9l-24.8-28.7v28.7h-15.7v-89.8H822.3z"/>
	<linearGradient id="SVGID_17_" gradientUnits="userSpaceOnUse" x1="903.3412" y1="332.7754" x2="903.3412" y2="265.8066">
		<stop  offset="0" style="stop-color:#A3D5E0"/>
		<stop  offset="3.768843e-02" style="stop-color:#82CADB"/>
		<stop  offset="8.602826e-02" style="stop-color:#60BFD6"/>
		<stop  offset="0.1395" style="stop-color:#42B5D2"/>
		<stop  offset="0.1982" style="stop-color:#2AADCF"/>
		<stop  offset="0.2646" style="stop-color:#18A7CC"/>
		<stop  offset="0.3428" style="stop-color:#0BA2CA"/>
		<stop  offset="0.4445" style="stop-color:#03A0C9"/>
		<stop  offset="0.655" style="stop-color:#019FC9"/>
	</linearGradient>
	<path class="st22" d="M886.6,305c1,7.8,7.8,13.5,18.9,13.5c5.8,0,13.4-2.2,17-5.9l10,9.9c-6.7,6.9-17.6,10.3-27.3,10.3
		c-21.9,0-34.8-13.5-34.8-33.8c0-19.3,13.1-33.2,33.7-33.2c21.2,0,34.4,13.1,32,39.2H886.6z M921,292c-1-8.2-7.5-12.3-16.5-12.3
		c-8.5,0-15.4,4.1-17.7,12.3H921z"/>
	<linearGradient id="SVGID_18_" gradientUnits="userSpaceOnUse" x1="963.8013" y1="331.8997" x2="963.8013" y2="249.8672">
		<stop  offset="0" style="stop-color:#A3D5E0"/>
		<stop  offset="3.768843e-02" style="stop-color:#82CADB"/>
		<stop  offset="8.602826e-02" style="stop-color:#60BFD6"/>
		<stop  offset="0.1395" style="stop-color:#42B5D2"/>
		<stop  offset="0.1982" style="stop-color:#2AADCF"/>
		<stop  offset="0.2646" style="stop-color:#18A7CC"/>
		<stop  offset="0.3428" style="stop-color:#0BA2CA"/>
		<stop  offset="0.4445" style="stop-color:#03A0C9"/>
		<stop  offset="0.655" style="stop-color:#019FC9"/>
	</linearGradient>
	<path class="st23" d="M967.5,249.9v18H985v13.5h-17.6v27.4c0,6,3.3,9,8.2,9c2.4,0,5.3-0.8,7.6-1.9l4.4,13.4
		c-4.5,1.8-8.2,2.6-13,2.7c-13.8,0.5-22.8-7.3-22.8-23.1v-27.4H940v-13.5h11.8v-16.3L967.5,249.9z"/>
	<linearGradient id="SVGID_19_" gradientUnits="userSpaceOnUse" x1="1055.4468" y1="331.1045" x2="1055.4468" y2="241.127">
		<stop  offset="0" style="stop-color:#A3D5E0"/>
		<stop  offset="3.768843e-02" style="stop-color:#82CADB"/>
		<stop  offset="8.602826e-02" style="stop-color:#60BFD6"/>
		<stop  offset="0.1395" style="stop-color:#42B5D2"/>
		<stop  offset="0.1982" style="stop-color:#2AADCF"/>
		<stop  offset="0.2646" style="stop-color:#18A7CC"/>
		<stop  offset="0.3428" style="stop-color:#0BA2CA"/>
		<stop  offset="0.4445" style="stop-color:#03A0C9"/>
		<stop  offset="0.655" style="stop-color:#019FC9"/>
	</linearGradient>
	<path class="st24" d="M1040.8,241.1v74.3h46.3v15.7h-63.2v-90H1040.8z"/>
	<linearGradient id="SVGID_20_" gradientUnits="userSpaceOnUse" x1="1105.7021" y1="331.1045" x2="1105.7021" y2="240.709">
		<stop  offset="0" style="stop-color:#A3D5E0"/>
		<stop  offset="3.768843e-02" style="stop-color:#82CADB"/>
		<stop  offset="8.602826e-02" style="stop-color:#60BFD6"/>
		<stop  offset="0.1395" style="stop-color:#42B5D2"/>
		<stop  offset="0.1982" style="stop-color:#2AADCF"/>
		<stop  offset="0.2646" style="stop-color:#18A7CC"/>
		<stop  offset="0.3428" style="stop-color:#0BA2CA"/>
		<stop  offset="0.4445" style="stop-color:#03A0C9"/>
		<stop  offset="0.655" style="stop-color:#019FC9"/>
	</linearGradient>
	<path class="st25" d="M1115,249.9c0,12.2-18.5,12.2-18.5,0S1115,237.7,1115,249.9z M1097.9,267.5v63.6h15.7v-63.6H1097.9z"/>
	<linearGradient id="SVGID_21_" gradientUnits="userSpaceOnUse" x1="1152.4897" y1="333.29" x2="1152.4897" y2="265.9346">
		<stop  offset="0" style="stop-color:#A3D5E0"/>
		<stop  offset="3.768843e-02" style="stop-color:#82CADB"/>
		<stop  offset="8.602826e-02" style="stop-color:#60BFD6"/>
		<stop  offset="0.1395" style="stop-color:#42B5D2"/>
		<stop  offset="0.1982" style="stop-color:#2AADCF"/>
		<stop  offset="0.2646" style="stop-color:#18A7CC"/>
		<stop  offset="0.3428" style="stop-color:#0BA2CA"/>
		<stop  offset="0.4445" style="stop-color:#03A0C9"/>
		<stop  offset="0.655" style="stop-color:#019FC9"/>
	</linearGradient>
	<path class="st26" d="M1169.1,284.6c-4.5-4.2-9.6-5.7-15.7-5.7c-7.5,0-11.6,2.3-11.6,6.3c0,4.1,3.7,6.4,11.8,6.9
		c12,0.8,27.1,3.5,27.1,20.3c0,11.2-9.1,20.8-27.3,20.8c-10,0-20.1-1.7-29.3-11.3l7.7-11.2c4.5,5,14.8,8.7,21.9,8.9
		c5.9,0.1,11.4-3,11.4-7.6c0-4.4-3.6-6.2-12.6-6.7c-12-0.9-26.2-5.3-26.2-19.7c0-14.7,15.2-19.8,26.7-19.8c9.9,0,17.4,1.9,24.7,8.4
		L1169.1,284.6z"/>
	<linearGradient id="SVGID_22_" gradientUnits="userSpaceOnUse" x1="1209.1743" y1="331.8997" x2="1209.1743" y2="249.8672">
		<stop  offset="0" style="stop-color:#A3D5E0"/>
		<stop  offset="3.768843e-02" style="stop-color:#82CADB"/>
		<stop  offset="8.602826e-02" style="stop-color:#60BFD6"/>
		<stop  offset="0.1395" style="stop-color:#42B5D2"/>
		<stop  offset="0.1982" style="stop-color:#2AADCF"/>
		<stop  offset="0.2646" style="stop-color:#18A7CC"/>
		<stop  offset="0.3428" style="stop-color:#0BA2CA"/>
		<stop  offset="0.4445" style="stop-color:#03A0C9"/>
		<stop  offset="0.655" style="stop-color:#019FC9"/>
	</linearGradient>
	<path class="st27" d="M1212.9,249.9v18h17.5v13.5h-17.6v27.4c0,6,3.3,9,8.2,9c2.4,0,5.3-0.8,7.6-1.9l4.4,13.4
		c-4.5,1.8-8.2,2.6-13,2.7c-13.8,0.5-22.8-7.3-22.8-23.1v-27.4h-11.8v-13.5h11.8v-16.3L1212.9,249.9z"/>
</g>
</svg>
