<?xml version="1.0" encoding="utf-8"?>
<!-- Generator: Adobe Illustrator 22.0.1, SVG Export Plug-In . SVG Version: 6.00 Build 0)  -->
<svg version="1.1" id="Layer_1" xmlns="http://www.w3.org/2000/svg" xmlns:xlink="http://www.w3.org/1999/xlink" x="0px" y="0px"
	 viewBox="0 0 600 400" style="enable-background:new 0 0 600 400;" xml:space="preserve">
<style type="text/css">
	.st0{fill:#EA5454;}
	.st1{fill:#E04444;}
	.st2{fill:#EA4949;}
	.st3{fill:#EF6565;}
	.st4{fill:#D82727;}
	.st5{fill:#A3D5E0;}
	.st6{fill:#019FC9;}
</style>
<path class="st0" d="M392.4,59.3L136.5,160.9l109.9,204.9l0.1,0c6.9,14.2,57.5,7.8,113.8-14.5c56.4-22.4,97.5-52.4,92.8-67.5l0,0
	L392.4,59.3z"/>
<path class="st1" d="M151.5,161c28,0.1,62.6-2.4,122.8-26.3c63-25,87.2-45.8,107.4-65.1c-24,18-63.7,39.2-110.3,57.7
	S181.3,157.7,151.5,161z"/>
<path class="st2" d="M402.3,26.4l-294.7,117l4.1,10.2l0,0c0,0.1,0.1,0.2,0.1,0.3c6.8,17.1,78.2,4.8,159.6-27.5s141.8-72.3,135-89.4
	c0-0.1-0.1-0.2-0.1-0.3l0,0L402.3,26.4L402.3,26.4z"/>
<path class="st3" d="M401.9,27.1c-7-17.6-78.5-5.6-159.8,26.7S100.5,126.4,107.5,144c7,17.6,78.5,5.6,159.8-26.7
	S408.9,44.6,401.9,27.1z"/>
<path class="st4" d="M378.8,36.3c-5.9-14.8-66.2-4.7-134.7,22.5s-119.3,61.2-113.5,76c2,5.1,10.5,7.2,23.6,6.8
	c24.8-0.9,193.3-67.8,212-84.2C376.1,48.7,380.8,41.4,378.8,36.3z"/>
<g>
	<path class="st5" d="M366.3,57.4c-24.8,0.9-66.2,11.4-111,29.2s-82.2,38.5-100.9,54.9c24.8-0.9,66.2-11.4,111-29.2
		C310.2,94.5,347.5,73.7,366.3,57.4z"/>
	<path class="st5" d="M345.3,72.7c8.3-5.3,15.4-10.5,20.9-15.3c-24.8,0.9-66.2,11.4-111,29.2s-82.2,38.5-100.9,54.9
		c7.2-0.3,15.9-1.4,25.7-3.2c20.2-13,48.2-27,80-39.6C291.7,86.1,321.7,77.1,345.3,72.7z"/>
</g>
<path class="st5" d="M209,209c0,0-62.5,26.1-107,21c-26-3,54-33,54-33l-11.1-20.5c0,0-92.6,39.8-101.9,57.5c-10,19,22,27,94,29
	s139-9,139-9l-45-38L209,209z"/>
<path class="st5" d="M408,117c0,0,48,0,67,22s4,95-91,140s-211,60-211,60s206.3-60.4,249-100c27-25,56-71,35-84s-42-13-42-13
	L408,117z"/>
<path class="st5" d="M708,297"/>
<path class="st6" d="M275.8,242.1l85.3-26.5l47.1,17.6c0,0,14.7,5.9,20.6-5.9c5.9-11.8,14.7-35.3,14.7-35.3l73.5-29.4
	c0,0,38.2-14.7,32.4-23.5s-35.3-5.9-35.3-5.9s-11.8-11.8-29.4-2.9S417,162.6,417,162.6l-100-26.5c0,0-17.6-5.9-23.5-2.9
	C287.6,136.2,270,145,270,145l55.9,47.1L270,218.5c0,0-35.3-20.6-50-14.7c-14.7,5.9-11.8,5.9-11.8,5.9l29.4,26.5l-14.7,8.8h17.6
	l11.8,5.9c0,0,20.6,5.9,23.5,2.9C275.8,253.8,281.7,250.9,275.8,242.1z"/>
</svg>
